FILE "Uresei Yatsura - Dear My Friends (1994)(Game Arts)(JP).img" BINARY
  TRACK 01 MODE1/2352
    INDEX 01 00:00:00
  TRACK 02 AUDIO
    PREGAP 00:02:00
    ISRC GAJPN9100001
    INDEX 01 36:14:68
  TRACK 03 AUDIO
    INDEX 00 38:12:32
    INDEX 01 38:14:31
